<?xml version="1.0" encoding="UTF-8" standalone="no"?>
<svg
   xmlns:dc="http://purl.org/dc/elements/1.1/"
   xmlns:cc="http://creativecommons.org/ns#"
   xmlns:rdf="http://www.w3.org/1999/02/22-rdf-syntax-ns#"
   xmlns:svg="http://www.w3.org/2000/svg"
   xmlns="http://www.w3.org/2000/svg"
   xmlns:sodipodi="http://sodipodi.sourceforge.net/DTD/sodipodi-0.dtd"
   xmlns:inkscape="http://www.inkscape.org/namespaces/inkscape"
   version="1.1"
   id="svg2"
   xml:space="preserve"
   width="1440"
   height="1440"
   viewBox="0 0 1440 1440"
   sodipodi:docname="Finex-logo-3 (2).ai"><metadata
     id="metadata8"><rdf:RDF><cc:Work
         rdf:about=""><dc:format>image/svg+xml</dc:format><dc:type
           rdf:resource="http://purl.org/dc/dcmitype/StillImage" /></cc:Work></rdf:RDF></metadata><defs
     id="defs6"><clipPath
       clipPathUnits="userSpaceOnUse"
       id="clipPath18"><path
         d="M 0,1080 H 1080 V 0 H 0 Z"
         id="path16" /></clipPath><clipPath
       clipPathUnits="userSpaceOnUse"
       id="clipPath26"><path
         d="M -241.166,721.484 H 906.546 V 177.288 H -241.166 Z"
         id="path24" /></clipPath><clipPath
       clipPathUnits="userSpaceOnUse"
       id="clipPath42"><path
         d="M 735.623,678.768 H 866.977 V 502.721 H 735.623 Z"
         id="path40" /></clipPath><clipPath
       clipPathUnits="userSpaceOnUse"
       id="clipPath58"><path
         d="M 735.002,679.205 H 941.987 V 378.531 H 735.002 Z"
         id="path56" /></clipPath><clipPath
       clipPathUnits="userSpaceOnUse"
       id="clipPath74"><path
         d="m 468.268,676.978 h 70.659 V 503.852 h -70.659 z"
         id="path72" /></clipPath><clipPath
       clipPathUnits="userSpaceOnUse"
       id="clipPath90"><path
         d="m 427.6,676.976 h 78.418 V 503.852 H 427.6 Z"
         id="path88" /></clipPath><clipPath
       clipPathUnits="userSpaceOnUse"
       id="clipPath106"><path
         d="M 501.952,779.173 H 613.196 V 503.784 H 501.952 Z"
         id="path104" /></clipPath></defs><sodipodi:namedview
     pagecolor="#ffffff"
     bordercolor="#666666"
     borderopacity="1"
     objecttolerance="10"
     gridtolerance="10"
     guidetolerance="10"
     inkscape:pageopacity="0"
     inkscape:pageshadow="2"
     inkscape:window-width="640"
     inkscape:window-height="480"
     id="namedview4" /><g
     id="g10"
     inkscape:groupmode="layer"
     inkscape:label="Finex-logo-3 (2)"
     transform="matrix(1.3333333,0,0,-1.3333333,0,1440)"><g
       id="g12"><g
         id="g14"
         clip-path="url(#clipPath18)"><g
           id="g20"><g
             id="g22" /><g
             id="g34"><g
               clip-path="url(#clipPath26)"
               opacity="0.910004"
               id="g32"><text
                 transform="matrix(1,0,0,-1,228.72532,502.2695)"
                 style="font-variant:normal;font-weight:normal;font-stretch:normal;font-size:261.904px;font-family:'Myriad Pro';-inkscape-font-specification:MyriadPro-Regular;writing-mode:lr-tb;fill:#345e82;fill-opacity:0.910004;fill-rule:nonzero;stroke:none"
                 id="text30"><tspan
                   x="0 127.5471 190.14209 356.71283 485.56946"
                   y="0"
                   sodipodi:role="line"
                   id="tspan28">FI E </tspan></text></g></g></g><g
           id="g36"><g
             id="g38" /><g
             id="g50"><g
               clip-path="url(#clipPath42)"
               opacity="0.910004"
               id="g48"><g
                 transform="translate(740.8066,502.7422)"
                 id="g46"><path
                   d="m 0,0 c 12.111,0.14 24.224,0.206 36.337,0.251 l 89.833,175.775 c -13.789,-0.048 -27.579,-0.06 -41.367,-0.067 H 84.756 L -5.184,-0.021 C -2.614,-0.012 -0.7,-0.008 0,0"
                   style="fill:#345e82;fill-opacity:1;fill-rule:nonzero;stroke:none"
                   id="path44" /></g></g></g></g><g
           id="g52"><g
             id="g54" /><g
             id="g66"><g
               clip-path="url(#clipPath58)"
               opacity="0.929993"
               id="g64"><g
                 transform="translate(935.8154,411.1045)"
                 id="g62"><path
                   d="m 0,0 -6.172,32.573 -9.734,-8.381 -140.065,243.501 c -11.202,0.051 -22.404,0.114 -33.604,0.233 -3.747,0.018 -7.492,0.118 -11.238,0.175 l 155.074,-269.595 -10.68,-9.195 31.296,-10.943 31.295,-10.941 z"
                   style="fill:#ffd767;fill-opacity:1;fill-rule:nonzero;stroke:none"
                   id="path60" /></g></g></g></g><g
           id="g68"><g
             id="g70" /><g
             id="g82"><g
               clip-path="url(#clipPath74)"
               opacity="0.910004"
               id="g80"><g
                 transform="translate(505.165,676.8047)"
                 id="g78"><path
                   d="m 0,0 c -11.767,0.016 -24.573,0.083 -36.897,0.173 l 34.056,-172.905 c 13.441,-0.035 26.075,-0.109 35.947,-0.221 0.219,0.093 0.438,0.185 0.656,0.278 -0.152,1.186 -0.305,2.371 -0.452,3.556 z"
                   style="fill:#345e82;fill-opacity:1;fill-rule:nonzero;stroke:none"
                   id="path76" /></g></g></g></g><g
           id="g84"><g
             id="g86" /><g
             id="g98"><g
               clip-path="url(#clipPath90)"
               opacity="0.929993"
               id="g96"><g
                 transform="translate(468.6382,676.9756)"
                 id="g94"><path
                   d="m 0,0 -41.039,-171.076 c 0.072,-0.364 0.144,-0.729 0.216,-1.094 0.062,-0.317 0.12,-0.637 0.182,-0.954 9.916,0.051 19.832,0.099 29.748,0.134 2.189,0.008 4.379,0.005 6.568,0.011 0.307,0.938 0.614,1.877 0.927,2.814 L 37.38,-0.171 C 25.5,-0.158 12.508,-0.091 0,0"
                   style="fill:#ffd767;fill-opacity:1;fill-rule:nonzero;stroke:none"
                   id="path92" /></g></g></g></g><g
           id="g100"><g
             id="g102" /><g
             id="g114"><g
               clip-path="url(#clipPath106)"
               opacity="0.929993"
               id="g112"><g
                 transform="translate(613.1963,714.0264)"
                 id="g110"><path
                   d="m 0,0 -6.29,32.573 -6.289,32.574 -25.603,-21.632 -25.601,-21.631 15.245,-5.231 -62.706,-226.567 c 7.686,-0.058 23.185,-0.201 37.443,-0.328 L -14.259,4.892 Z"
                   style="fill:#ffd767;fill-opacity:1;fill-rule:nonzero;stroke:none"
                   id="path108" /></g></g></g></g></g></g></g></svg>
